<?xml version="1.0" encoding="utf-8"?>
<!-- Generator: Adobe Illustrator 22.1.0, SVG Export Plug-In . SVG Version: 6.00 Build 0)  -->
<svg version="1.1" id="图层_1" xmlns="http://www.w3.org/2000/svg" xmlns:xlink="http://www.w3.org/1999/xlink" x="0px" y="0px"
	 viewBox="0 0 245 300" style="enable-background:new 0 0 245 300;" xml:space="preserve">
<style type="text/css">
	.st0{fill:url(#path-2_3_);}
	.st1{filter:url(#Adobe_OpacityMaskFilter);}
	.st2{fill:#FFFFFF;}
	.st3{mask:url(#mask-3_1_);}
	.st4{opacity:0.265;fill:url(#路径-3_2_);fill-opacity:0.89;enable-background:new    ;}
	.st5{fill:url(#路径-3_5_);fill-opacity:0.87;}
	.st6{fill:url(#路径-4_1_);}
	.st7{fill:url(#路径-5_1_);}
	.st8{fill:url(#路径-6_1_);}
	.st9{fill:url(#路径-7_1_);}
</style>
<title>logo</title>
<desc>Created with Sketch.</desc>
<g id="Page-2">
	<g id="nightingale-logo" transform="translate(-150.000000, -145.000000)">
		<g id="logo" transform="translate(150.000000, 145.000000)">
			<g id="Mask">
				
					<linearGradient id="path-2_3_" gradientUnits="userSpaceOnUse" x1="-174.4277" y1="568.8312" x2="-173.2979" y2="569.9843" gradientTransform="matrix(245 0 0 -300 42700 170995.9219)">
					<stop  offset="0" style="stop-color:#B7F6FF"/>
					<stop  offset="1" style="stop-color:#205CFF"/>
				</linearGradient>
				<path id="path-2_1_" class="st0" d="M100,0h145v200c0,55.2-44.8,100-100,100H0V100C0,44.8,44.8,0,100,0z"/>
			</g>
			<defs>
				<filter id="Adobe_OpacityMaskFilter" filterUnits="userSpaceOnUse" x="-18" y="44.1" width="291.2" height="262.7">
					<feColorMatrix  type="matrix" values="1 0 0 0 0  0 1 0 0 0  0 0 1 0 0  0 0 0 1 0"/>
				</filter>
			</defs>
			<mask maskUnits="userSpaceOnUse" x="-18" y="44.1" width="291.2" height="262.7" id="mask-3_1_">
				<g class="st1">
					<path id="path-2_2_" class="st2" d="M100,0h145v200c0,55.2-44.8,100-100,100H0V100C0,44.8,44.8,0,100,0z"/>
				</g>
			</mask>
			<g id="分组" class="st3">
				<g transform="translate(-18.326772, 44.000000)">
					
						<linearGradient id="路径-3_2_" gradientUnits="userSpaceOnUse" x1="-155.1525" y1="524.3486" x2="-155.4377" y2="525.0004" gradientTransform="matrix(202.3432 0 0 -155.5375 31615.8574 81784.625)">
						<stop  offset="0" style="stop-color:#B7F6FF"/>
						<stop  offset="1" style="stop-color:#3774FF"/>
					</linearGradient>
					<path id="路径-3" class="st4" d="M212.8,188c-18.4,5-72.3-4.2-76.7-32.3c-4.4-28.1,15.3-38.8,22.8-40.9
						c8.2-2.3,21.4-1.3,26.5,1.5s10.3,7.3,11.7,11.8c0.8,2.8,1.3,9.1,1.4,18.9c1.8-10,2.4-16.7,1.7-20.3c-1.2-7.3-5.3-9.8-9.5-13.4
						c-8.4-7.3-25.1-7.4-34.4-8.4c-21.4-2.4-55.1,16.5-61,48.9c-5.9,32.4,4.9,54.6,18.9,71.8c-10.8,0-26-16.2-25.3-14
						C90.7,216.2,110,260,161,260s78.8-3.8,105-41.5c17.5-25.2,25.9-53.4,25.4-84.6L277,121.2C272.2,155.5,259.5,175.2,212.8,188z"
						/>
					
						<radialGradient id="路径-3_5_" cx="-158.0627" cy="527.1606" r="0.8258" gradientTransform="matrix(-128.2604 -87.9839 -91.4871 133.3674 28143.4668 -84037.5859)" gradientUnits="userSpaceOnUse">
						<stop  offset="0" style="stop-color:#A0F3FF"/>
						<stop  offset="0.3515" style="stop-color:#9BEDFF"/>
						<stop  offset="1" style="stop-color:#75ACFF"/>
						<stop  offset="1" style="stop-color:#59D3FF"/>
					</radialGradient>
					<path id="路径-3_1_" class="st5" d="M193,193.6c-41.8,7.1-71.2-20.5-66.7-51.3c4.5-30.8,27.7-35.8,41.1-35.8
						c5.5,0,9.6,0.8,14.3,2.6c3.8,1.4,7.8,3.5,11.9,6.5c-2.4-2-4.2-3.5-5.7-4.5s-3-1.9-4.6-2.7c-13.8-6.2-25-9.8-33.8-10.8
						c-21.4-2.4-55.1,16.5-61,48.9c-5.9,32.4,4.9,54.6,18.9,71.8c-10.8,0-26-16.2-25.3-14c1.5,4.8,20.9,48.7,71.9,48.7
						s78.8-3.8,105-41.5c17.5-25.2,25.9-53.4,25.4-84.6l-14.4-12.7C265.4,148.5,234.9,186.5,193,193.6z"/>
					
						<linearGradient id="路径-4_1_" gradientUnits="userSpaceOnUse" x1="-155.5565" y1="524.8783" x2="-156.3012" y2="525.455" gradientTransform="matrix(261.9767 0 0 -169.855 40894.957 89316.8516)">
						<stop  offset="0" style="stop-color:#97F2FF"/>
						<stop  offset="0.7589" style="stop-color:#5996FF"/>
						<stop  offset="1" style="stop-color:#205CFF"/>
					</linearGradient>
					<path id="路径-4" class="st6" d="M194.7,116.5c-3.6-3.9-6.2-6.4-7.7-7.5c-8.5-6.1-19-10.7-25.9-12.1
						c-13.2-2.5-21.3-3.9-34.6-3.9c-39.9,0-73.9,30-73.9,35.4c0,5.4-1-5.7,4.4-17.7c3.6-8,5.4-11.8,5.6-11.3
						c-8,4.2-14.6,9.7-19.9,16.7c-8,10.4-20.5,26.8-16.7,61.7s19.4,49.7,38.8,64.9s41.1,20,76.1,20c20.3,0,70.1,2.3,100-17.1
						c19.9-12.9,33.8-30,41.6-51.3c4.1-55.4,5.6-81.5,4.4-78.3c-5.5,15.1-3.4,5.9-11.9,24.6c-5,11-11.9,29.4-24.5,49.8
						c-6.5,10.6-15.5,22.2-28.2,33.5c-19.9,17.8-61.1,32.1-91.8,21.6c-19.8-6.8-35.9-20.5-48.2-41.3c6.2,4.5,10.1,7.3,11.7,8.4
						c8.8,6,15.5,6.8,14.8,6.8c1.4,0-21.1-22-21.1-56.7s21.2-55,42.8-61.5c5-1.5,10.5-2.2,18.1-2.2c6.4,0,12.7,1.5,17.2,2.8
						c3.5,1,9.1,2.7,15.8,5.9c1.3,0.6,4.1,1.9,7.3,4C189.8,112.4,191.8,114,194.7,116.5z"/>
					
						<linearGradient id="路径-5_1_" gradientUnits="userSpaceOnUse" x1="-155.2497" y1="525.0245" x2="-155.1669" y2="525.5534" gradientTransform="matrix(191.0648 0 0 -182.8051 29768.3711 96104.3516)">
						<stop  offset="0" style="stop-color:#B7F6FF"/>
						<stop  offset="1" style="stop-color:#20A0FF"/>
					</linearGradient>
					<path id="路径-5" class="st7" d="M12.6,122.8c2.9-13.9,11.4-27.5,25.5-40.6c21.1-19.7,46.7-25,57.1-25c6.9,0,12.3,0,16.3,0
						c-4.5,1.4-8.3,3.2-11.4,5.3s-5.6,4.5-7.5,7.2c25.2-1.9,48.7,2.8,70.5,14.3c17.3,9.1,29.3,20.9,34.6,33.3c0.9,2.1,1.6,5.2,2.1,9
						c-0.7-2.6-1.4-4.6-2.1-5.9c-1-1.9-2.9-4-4.2-5.4c-2.4-2.6-5.5-4.7-8.8-7c-8.4-5.9-32.8-18.2-67-13.9
						c-22.8,2.9-44.4,13.6-64.7,32.1c0.2-3.9,1.4-8.4,3.4-13.4c2-5,3.9-9.6,5.8-13.9c-18.3,13.3-29.5,27.7-33.5,43.2
						c-6.1,23.3-4.1,45.3,5.5,64.5c6.4,12.8,15.4,23.8,27.1,33.2c-27-15.2-43.2-32.2-48.5-51S7.3,148.2,12.6,122.8z"/>
					
						<linearGradient id="路径-6_1_" gradientUnits="userSpaceOnUse" x1="-155.0306" y1="524.5981" x2="-156.1851" y2="524.6747" gradientTransform="matrix(208.2029 0 0 -151.4559 32445.0938 79529.7031)">
						<stop  offset="0" style="stop-color:#B7F6FF"/>
						<stop  offset="1" style="stop-color:#20A0FF"/>
					</linearGradient>
					<path id="路径-6" class="st8" d="M45,33.5C65.8,13.9,86.1,2.4,115.6,0.4s67.9,9.6,89.2,53.2c2.2,4.4,5.7,15.4,2.3,23.3
						c-2.1,5-8.2,11.3-7.3,15.3c1.3,5.7,7.3,14.5,7.3,28.2c0,16.1-12.5,33.8-11,30.9c3.7-7.3,3.7-12.5,3.7-20.8
						c0-12.4-5.5-21.4-16.3-31.8c-9-8.6-27.9-18.9-43.4-23.8s-33.1-4.6-48.4-4.2c-2.6,0.1,3.9-5.5,9-9.1c3.4-2.4,6.7-3.9,9.8-4.4
						c-20.2,0-39.5,5.1-57.8,15.3C30.9,84.6,22,102.1,11.6,120.4S0.3,101.1,0.3,101.2C16.2,69.1,31.1,46.5,45,33.5z"/>
					
						<linearGradient id="路径-7_1_" gradientUnits="userSpaceOnUse" x1="-139.4087" y1="511.094" x2="-139.4087" y2="510.094" gradientTransform="matrix(12.239 1.5028 1.9107 -15.5616 917.8299 8225.8291)">
						<stop  offset="0" style="stop-color:#81DEFF"/>
						<stop  offset="1" style="stop-color:#20A0FF"/>
					</linearGradient>
					<path id="路径-7" class="st9" d="M183.2,62.4c0.8-0.5,4.4,2.4,6.5,5.6c2.8,4.2,3.8,10.5,2,11.1c-1.5,0.4-6.3-2.1-9-5.7
						C180,69.8,182,63.1,183.2,62.4z"/>
				</g>
			</g>
		</g>
	</g>
</g>
</svg>
